HIERARCHY
ROOT SpineBase
{
  OFFSET 0.000000 0.000000 0.000000
  CHANNELS 6 Xposition Yposition Zposition Zrotation Xrotation Yrotation
  JOINT SpineMid
  {
    OFFSET 0.000000 31.513925 -0.000000
    CHANNELS 3 Zrotation Xrotation Yrotation
    JOINT SpineShoulder
    {
      OFFSET -0.258004 23.472822 -0.774320
      CHANNELS 3 Zrotation Xrotation Yrotation
      JOINT Neck
      {
        OFFSET -0.174186 7.788558 -0.591844
        CHANNELS 3 Zrotation Xrotation Yrotation
        JOINT Head
        {
          OFFSET 3.225847 12.727869 0.048698
          CHANNELS 3 Zrotation Xrotation Yrotation
          End Site
          {
            OFFSET 0 0 0
          }
        }
      }
      JOINT ShoulderLeft
      {
        OFFSET -17.042954 -1.932411 -5.129811
        CHANNELS 3 Zrotation Xrotation Yrotation
        JOINT ElbowLeft
        {
          OFFSET -4.502282 -25.932389 -2.086180
          CHANNELS 3 Zrotation Xrotation Yrotation
          JOINT WristLeft
          {
            OFFSET 0.918277 -25.547102 -8.332387
            CHANNELS 3 Zrotation Xrotation Yrotation
            JOINT HandLeft
            {
              OFFSET 0.228276 -5.678062 -0.511353
              CHANNELS 3 Zrotation Xrotation Yrotation
              JOINT HandTipLeft
              {
                OFFSET 1.554169 -7.352210 -0.014933
                CHANNELS 3 Zrotation Xrotation Yrotation
                End Site
                {
                  OFFSET 0 0 0
                }
              }
              JOINT ThumbLeft
              {
                OFFSET 2.997921 0.026599 -2.026042
                CHANNELS 3 Zrotation Xrotation Yrotation
                End Site
                {
                  OFFSET 0 0 0
                }
              }
            }
          }
        }
      }
      JOINT ShoulderRight
      {
        OFFSET 17.361327 -5.323012 -0.468757
        CHANNELS 3 Zrotation Xrotation Yrotation
        JOINT ElbowRight
        {
          OFFSET 1.139805 -29.882995 0.177829
          CHANNELS 3 Zrotation Xrotation Yrotation
          JOINT WristRight
          {
            OFFSET 0.304661 -23.259003 -6.090689
            CHANNELS 3 Zrotation Xrotation Yrotation
            JOINT HandRight
            {
              OFFSET -1.357051 -5.658396 -0.371707
              CHANNELS 3 Zrotation Xrotation Yrotation
              JOINT HandTipRight
              {
                OFFSET -0.902944 -7.570365 -0.788144
                CHANNELS 3 Zrotation Xrotation Yrotation
                End Site
                {
                  OFFSET 0 0 0
                }
              }
              JOINT ThumbRight
              {
                OFFSET -4.766388 -0.643119 -2.224797
                CHANNELS 3 Zrotation Xrotation Yrotation
                End Site
                {
                  OFFSET 0 0 0
                }
              }
            }
          }
        }
      }
    }
  }
  JOINT HipLeft
  {
    OFFSET -7.549026 1.586366 -4.540451
    CHANNELS 3 Zrotation Xrotation Yrotation
    JOINT KneeLeft
    {
      OFFSET -11.069847 -34.151383 3.814196
      CHANNELS 3 Zrotation Xrotation Yrotation
      JOINT AnkleLeft
      {
        OFFSET -2.167963 -32.869042 8.700827
        CHANNELS 3 Zrotation Xrotation Yrotation
        JOINT FootLeft
        {
          OFFSET 0.431249 -4.230789 -13.877502
          CHANNELS 3 Zrotation Xrotation Yrotation
          End Site
          {
            OFFSET 0 0 0
          }
        }
      }
    }
  }
  JOINT HipRight
  {
    OFFSET 5.801598 0.632503 -2.695278
    CHANNELS 3 Zrotation Xrotation Yrotation
    JOINT KneeRight
    {
      OFFSET 1.304411 -35.605541 3.234857
      CHANNELS 3 Zrotation Xrotation Yrotation
      JOINT AnkleRight
      {
        OFFSET -1.096108 -34.727426 9.851233
        CHANNELS 3 Zrotation Xrotation Yrotation
        JOINT FootRight
        {
          OFFSET -0.573760 -3.900479 -15.660371
          CHANNELS 3 Zrotation Xrotation Yrotation
          End Site
          {
            OFFSET 0 0 0
          }
        }
      }
    }
  }
}
MOTION
Frames: 10
Frame Time: 0.033333
82.408771 78.635998 345.479867 -0.050469 -0.001179 -7.374374 0.049900 0.007647 7.374370 -0.000000 0.000000 0.000000 1.206624 0.185786 -0.053804 0.000000 0.000000 0.000000 0.667683 -0.932444 0.113800 2.534241 -0.628923 -1.216235 -1.934875 -1.379857 0.916889 -0.999647 7.513319 1.213125 0.000000 0.000000 0.000000 0.000000 0.000000 0.000000 -0.000000 0.000000 0.000000 -0.668514 0.558160 0.185406 -4.219576 0.439081 -0.099541 14.707863 -6.750001 0.290624 0.000000 0.000000 0.000000 0.000000 0.000000 0.000000 0.049900 0.007647 7.374370 0.806142 0.604007 0.169626 -0.760765 1.564604 -0.095568 0.000000 0.000000 0.000000 0.049900 0.007647 7.374370 -0.000000 0.000000 0.000000 1.320779 -17.997895 -6.681256 0.000000 0.000000 0.000000
82.379272 78.637768 345.512130 -0.063766 -0.032907 -7.374945 0.059014 0.040820 7.374906 -0.000000 0.000000 0.000000 1.278681 0.220055 -0.063299 0.000000 0.000000 0.000000 -0.000000 0.000000 0.000000 3.399521 -1.754480 -1.124486 -0.673347 -3.148499 0.824911 -2.247793 6.131409 0.773820 0.000000 0.000000 0.000000 0.000000 0.000000 0.000000 -0.000000 0.000000 0.000000 -0.000000 0.000000 0.000000 -4.616604 0.912345 0.120175 12.797345 -4.254640 -0.133174 0.000000 0.000000 0.000000 0.000000 0.000000 0.000000 0.059014 0.040820 7.374906 1.011338 0.543626 0.227483 -0.575683 1.160621 -1.421012 0.000000 0.000000 0.000000 0.059014 0.040820 7.374906 -0.000000 0.000000 0.000000 1.202023 -22.158663 -6.072535 0.000000 0.000000 0.000000
82.314363 78.635344 345.567681 -0.115724 -0.081490 -7.349441 0.104349 0.095624 7.349272 -0.000000 0.000000 0.000000 1.360950 0.320090 -0.090406 0.000000 0.000000 0.000000 -0.000000 0.000000 0.000000 -0.000000 0.000000 0.000000 4.199128 -6.868660 -0.404281 -5.258602 6.546946 0.973204 0.000000 0.000000 0.000000 0.000000 0.000000 0.000000 -0.000000 0.000000 0.000000 -0.000000 0.000000 0.000000 -3.981945 0.675875 0.122019 10.172172 -1.468842 -0.513995 0.000000 0.000000 0.000000 0.000000 0.000000 0.000000 0.104349 0.095624 7.349272 1.214096 0.515455 0.282471 -1.216670 -0.509347 -0.293341 0.000000 0.000000 0.000000 0.104349 0.095624 7.349272 -0.000000 0.000000 0.000000 1.132102 -22.103240 -4.811932 0.000000 0.000000 0.000000
82.227819 78.621761 345.645167 -0.165517 -0.141437 -7.341219 0.146088 0.161426 7.340809 -0.000000 0.000000 0.000000 1.480148 0.243754 -0.070822 0.000000 0.000000 0.000000 -0.000000 0.000000 0.000000 -4.215791 3.529865 1.618284 9.330728 -13.695386 -1.457067 -10.132669 6.333519 1.300210 0.000000 0.000000 0.000000 0.000000 0.000000 0.000000 -0.000000 0.000000 0.000000 -0.000000 0.000000 0.000000 -2.775766 -0.172944 0.218419 6.711144 1.312390 -0.827371 0.000000 0.000000 0.000000 0.000000 0.000000 0.000000 0.146088 0.161426 7.340809 1.474487 0.485529 0.352757 -2.163226 -2.656469 1.728614 0.000000 0.000000 0.000000 0.826371 0.711851 7.420138 -0.745689 -0.457910 -0.087493 0.990543 -14.718726 -3.481187 0.000000 0.000000 0.000000
82.173003 78.602634 345.768904 -0.289814 -0.206171 -7.381583 0.260927 0.241694 7.380511 -0.000000 0.000000 0.000000 1.519040 0.096884 -0.031758 0.000000 0.000000 0.000000 1.337626 -4.518124 0.733789 -13.638719 17.870757 6.080469 16.550261 -25.691540 -2.008877 -15.684996 9.357926 3.013511 0.000000 0.000000 0.000000 0.000000 0.000000 0.000000 -0.115953 0.909322 0.034917 0.115414 -0.909391 -0.033081 -1.652244 -0.558188 0.233634 4.041923 4.677966 -1.097787 0.000000 0.000000 0.000000 0.000000 0.000000 0.000000 0.260927 0.241694 7.380511 1.624148 0.525221 0.388706 -2.519138 -4.121302 2.314483 0.000000 0.000000 0.000000 1.128887 0.989748 7.481229 -0.958014 -0.628561 -0.115301 1.038917 -16.301332 -3.795164 0.000000 0.000000 0.000000
82.038817 78.595351 345.890542 -0.447195 -0.228073 -7.393247 0.414134 0.283715 7.391331 -0.000000 0.000000 0.000000 1.599691 -0.371624 0.093587 0.000000 0.000000 0.000000 0.628830 -5.621655 0.961773 -21.136648 25.160896 11.492900 21.909591 -33.104766 -2.244152 -21.302584 5.798221 2.808923 0.000000 0.000000 0.000000 0.000000 0.000000 0.000000 -0.163141 1.070010 0.041371 0.162397 -1.070123 -0.038331 -1.347089 -0.296670 0.155746 5.164196 5.067176 -1.307874 0.000000 0.000000 0.000000 0.000000 0.000000 0.000000 0.414134 0.283715 7.391331 1.823244 0.515539 0.441455 -2.763610 -5.029774 2.352930 0.000000 0.000000 0.000000 1.568315 1.209358 7.519315 -1.265473 -0.766399 -0.151487 0.994818 -15.097379 -3.488949 0.000000 0.000000 0.000000
82.137120 78.562651 346.100102 -0.739370 -0.276560 -7.977028 -0.203077 0.070419 7.943794 -0.173244 -0.044238 -0.056369 1.103636 0.224484 0.086719 0.000000 0.000000 0.000000 -1.800224 -3.672558 0.908141 -22.358842 24.397562 13.686664 22.299958 -31.891207 -3.860740 -25.835194 -1.226585 0.093576 0.000000 0.000000 0.000000 0.000000 0.000000 0.000000 0.578520 1.639121 0.146153 -0.325140 -0.875802 0.167262 1.565176 -2.299134 0.167060 4.509125 8.251635 -2.136616 0.000000 0.000000 0.000000 0.000000 0.000000 0.000000 0.693851 0.376467 7.972964 1.532960 0.726517 0.349070 -2.233472 -5.717827 1.531249 0.000000 0.000000 0.000000 1.838499 1.669266 8.112959 -1.315842 -1.117969 -0.173269 1.019788 -14.400875 -3.734797 0.000000 0.000000 0.000000
82.367371 78.512762 346.364736 -1.197586 -0.302880 -9.106891 -0.291583 0.034108 9.054109 -0.186482 -0.045846 -0.081701 0.647226 1.688338 -0.208604 0.000000 0.000000 0.000000 -4.825017 -2.494059 0.997009 -22.560922 24.081637 15.396410 21.724082 -32.111085 -5.481042 -29.125029 -3.776474 -1.529353 0.000000 0.000000 0.000000 0.000000 0.000000 0.000000 0.622729 1.987379 0.208648 0.047996 -0.741640 0.206479 3.005251 -2.884232 0.128353 5.353509 8.832387 -2.578445 0.000000 0.000000 0.000000 0.000000 0.000000 0.000000 1.134591 0.488537 9.098888 0.886283 1.098332 0.154143 -1.104027 -6.074870 -0.015823 0.000000 0.000000 0.000000 2.347474 2.426481 9.267903 -2.538259 -1.871100 -0.540933 2.439547 -19.546404 -6.719731 0.000000 0.000000 0.000000
82.760873 78.444755 346.673448 -1.718316 -0.316165 -10.656102 -0.354637 -0.018789 10.581711 -0.187313 -0.048542 -0.107964 -0.353087 2.950964 -0.407507 0.000000 0.000000 0.000000 -7.719785 -1.681857 1.188098 -20.963340 23.156286 15.901645 19.120484 -29.354475 -7.140986 -31.473261 -3.877728 -2.456701 0.000000 0.000000 0.000000 0.000000 0.000000 0.000000 0.678512 2.312763 0.275396 0.483623 -0.475649 0.240735 3.030509 -3.954704 0.258871 7.612669 9.279055 -3.215732 0.000000 0.000000 0.000000 0.000000 0.000000 0.000000 2.533802 0.430573 10.846648 -0.846142 2.011178 -0.319560 0.480771 -6.096524 -2.125221 0.000000 0.000000 0.000000 2.814929 3.272484 10.839688 -3.224347 -2.336671 -0.779874 2.694452 -31.288760 -11.382063 0.000000 0.000000 0.000000
83.359136 78.348689 347.001385 -2.323774 -0.264645 -12.626042 -0.391306 -0.059300 12.529624 -0.169086 -0.033642 -0.133787 -1.729559 4.861126 -0.712583 0.000000 0.000000 0.000000 -16.779066 0.501202 1.851023 -2.277594 15.847279 9.105677 7.815301 -17.573503 -6.951617 -27.663619 -4.471552 -3.923765 0.000000 0.000000 0.000000 0.000000 0.000000 0.000000 0.697528 2.565087 0.347472 1.122444 -0.155636 0.249607 2.056927 -4.305136 0.225226 9.616313 8.488873 -3.302685 0.000000 0.000000 0.000000 0.000000 0.000000 0.000000 3.037611 0.357588 12.866131 -1.741252 2.753852 -0.653495 2.392519 -5.592792 -4.618914 0.000000 0.000000 0.000000 3.271960 4.084837 12.831505 -4.094568 -2.662746 -1.099863 2.747001 -37.941730 -15.594428 0.000000 0.000000 0.000000
